<?xml version="1.0" standalone="no"?>
<!DOCTYPE svg PUBLIC "-//W3C//DTD SVG 20010904//EN"
 "http://www.w3.org/TR/2001/REC-SVG-20010904/DTD/svg10.dtd">
<svg version="1.0" xmlns="http://www.w3.org/2000/svg"
 width="854.000000pt" height="762.000000pt" viewBox="0 0 854.000000 762.000000"
 preserveAspectRatio="xMidYMid meet">

<g transform="translate(0.000000,762.000000) scale(0.100000,-0.100000)"
fill="#000000" stroke="none">
<path d="M2206 7409 c-140 -7 -177 -12 -212 -30 -57 -27 -90 -68 -110 -135
-14 -50 -14 -59 1 -111 16 -57 26 -67 453 -496 l437 -437 -280 -280 -280 -280
0 -55 c0 -71 30 -105 100 -112 l46 -6 282 282 c156 154 287 281 292 281 6 0
62 -52 125 -115 l115 -115 -1095 -1094 c-1086 -1086 -1095 -1095 -1142 -1101
-60 -9 -110 8 -153 51 -39 39 -50 82 -40 152 7 47 13 54 661 703 569 569 655
660 660 691 8 47 -16 91 -60 112 -42 20 -69 20 -104 2 -15 -8 -320 -308 -678
-668 l-651 -653 -32 -77 c-83 -203 5 -418 207 -510 115 -52 249 -46 357 17 24
14 124 106 223 205 99 98 182 176 186 173 3 -4 6 -693 6 -1533 0 -977 4 -1547
10 -1581 22 -117 116 -246 216 -297 108 -55 8 -52 1795 -52 1622 0 1648 0
1710 20 124 39 223 130 272 250 21 53 22 69 25 392 2 265 5 338 15 338 17 0
157 -68 179 -87 16 -15 27 -51 73 -248 34 -141 54 -183 120 -244 83 -75 109
-81 375 -81 182 0 236 3 274 16 55 19 149 101 175 153 10 20 35 108 55 195 21
88 44 172 52 188 11 20 41 41 108 73 51 25 138 75 192 111 55 36 110 67 124
70 14 3 97 -17 195 -46 151 -46 178 -51 240 -48 85 5 147 33 204 91 41 42 164
243 224 367 43 88 48 167 17 253 -21 56 -37 76 -170 207 l-148 145 2 252 1
251 147 144 c131 128 149 149 168 203 27 74 24 168 -8 235 -44 94 -187 334
-224 375 -59 68 -177 113 -261 102 -23 -4 -109 -27 -192 -51 -82 -25 -164 -46
-180 -46 -21 0 -62 20 -125 62 -52 34 -137 83 -189 109 -112 57 -128 71 -140
118 -5 20 -23 97 -41 171 -18 74 -41 152 -51 173 -31 60 -86 114 -147 144
l-57 28 -240 0 c-268 0 -286 -3 -373 -73 -65 -52 -91 -101 -123 -236 -51 -213
-60 -244 -79 -261 -20 -18 -167 -95 -181 -95 -5 0 -9 145 -9 323 0 359 -4 387
-64 482 -40 61 -109 126 -166 155 -82 42 -156 50 -473 50 l-297 0 2 218 3 217
-33 69 c-29 62 -59 97 -284 323 l-252 253 91 93 c121 120 142 176 107 269 -21
56 -458 500 -519 529 -93 43 -166 17 -293 -105 l-88 -85 -235 235 c-128 129
-256 250 -284 268 -101 68 -165 74 -559 55z m418 -234 c17 -8 109 -93 204
-188 l172 -172 -130 -130 -130 -130 -305 305 c-168 168 -305 308 -305 312 0 7
96 12 338 16 93 1 132 -2 156 -13z m1316 -730 c0 -12 -101 -115 -113 -115 -14
0 -357 345 -357 358 0 6 26 37 57 67 l57 56 178 -178 c98 -98 178 -182 178
-188z m-473 -107 c167 -167 303 -307 303 -313 0 -6 -54 -64 -119 -129 l-120
-120 -311 309 -310 309 122 123 c68 68 125 123 128 123 3 0 141 -136 307 -302z
m849 -856 c13 -29 14 -63 7 -265 l-9 -232 -309 307 -310 308 130 130 130 130
172 -172 c95 -95 180 -188 189 -206z m-691 -132 l280 -280 -563 0 c-309 0
-562 3 -562 6 0 9 548 554 557 554 4 0 134 -126 288 -280z m541 -549 c46 -40
121 -71 173 -71 44 0 112 33 150 74 l35 36 170 -1 c94 0 244 -4 333 -8 159 -7
163 -8 205 -37 25 -17 52 -49 65 -74 23 -45 23 -50 23 -477 l0 -433 -1785 0
-1785 0 0 117 0 117 397 398 398 398 788 0 789 0 44 -39z m2369 -323 c22 -20
32 -49 66 -198 24 -104 50 -191 64 -215 38 -65 94 -110 205 -166 58 -29 143
-78 190 -110 102 -69 141 -87 212 -94 64 -7 103 0 274 54 145 45 182 49 213
24 17 -15 131 -196 131 -209 0 -1 16 -29 35 -61 61 -100 59 -105 -109 -268
-198 -192 -189 -165 -191 -520 -3 -369 -13 -341 187 -537 l151 -148 -6 -42
c-4 -37 -79 -177 -185 -346 -20 -31 -66 -30 -183 4 -246 73 -267 77 -327 65
-68 -13 -137 -47 -222 -106 -35 -25 -114 -70 -175 -101 -122 -61 -160 -93
-198 -162 -22 -41 -97 -316 -97 -357 0 -8 -13 -29 -29 -47 l-29 -33 -200 0
c-260 0 -239 -17 -298 239 -54 232 -81 269 -264 363 -63 32 -134 71 -157 86
l-43 27 0 125 c0 69 3 125 6 125 4 0 39 -24 78 -54 122 -93 250 -155 411 -198
69 -19 106 -22 265 -22 199 0 261 10 409 68 462 182 755 662 701 1150 -20 184
-90 386 -145 422 -30 20 -115 15 -138 -7 -47 -47 -47 -86 -3 -204 93 -243 85
-463 -26 -704 -42 -92 -87 -156 -164 -234 -150 -153 -331 -241 -551 -268 -85
-11 -111 -10 -203 5 -160 27 -306 86 -415 169 -58 44 -157 147 -193 203 l-32
47 0 463 0 462 44 58 c51 69 151 167 219 213 64 44 184 98 271 124 58 17 98
21 226 21 186 0 245 -14 418 -100 110 -55 115 -56 153 -45 76 23 104 119 53
181 -30 35 -194 119 -294 149 -217 67 -440 67 -660 0 -100 -30 -258 -111 -338
-173 -40 -31 -77 -56 -82 -56 -6 0 -10 49 -10 123 l0 122 58 37 c31 20 101 58
156 85 74 36 110 61 146 100 55 60 69 98 120 316 44 187 28 177 281 177 191 0
199 -1 224 -22z m-1207 -1009 l3 -107 -373 -6 c-205 -4 -1010 -6 -1788 -4
l-1415 3 -3 113 -3 112 1788 -2 1788 -3 3 -106z m-280 -346 l272 -6 0 -412 0
-412 -247 -6 c-137 -4 -353 -7 -481 -7 -199 0 -236 -2 -258 -16 -61 -41 -67
-128 -12 -181 l29 -28 487 -5 487 -5 0 -105 0 -105 -1787 -3 -1788 -2 0 110 0
110 1069 0 1068 0 34 23 c46 31 67 98 43 143 -34 63 40 59 -1134 64 l-1075 5
-3 410 c-1 225 0 416 3 422 3 10 315 13 1513 13 830 0 1631 -3 1780 -7z m15
-1530 l257 -6 0 -424 c0 -466 0 -466 -62 -530 -65 -67 47 -64 -1748 -61 -1597
3 -1626 3 -1655 23 -40 26 -74 62 -88 94 -12 27 -24 868 -13 897 5 12 245 14
1529 14 838 0 1639 -3 1780 -7z"/>
<path d="M2874 4402 c-83 -53 -63 -185 32 -211 45 -12 81 -3 114 31 25 25 30
38 30 79 0 39 -5 55 -28 80 -36 40 -102 50 -148 21z"/>
<path d="M3474 4402 c-86 -54 -56 -206 41 -213 57 -4 74 1 104 32 26 26 31 38
31 80 0 39 -5 55 -28 80 -36 40 -102 50 -148 21z"/>
<path d="M4074 4402 c-86 -54 -56 -206 41 -213 57 -4 74 1 104 32 43 42 44
109 3 158 -35 43 -100 53 -148 23z"/>
<path d="M6199 3255 c-163 -32 -318 -152 -390 -300 -49 -101 -63 -174 -56
-290 9 -148 61 -261 168 -366 305 -297 813 -155 933 260 20 69 21 209 1 284
-54 208 -229 372 -440 412 -91 18 -128 18 -216 0z m249 -250 c68 -30 126 -87
164 -157 20 -37 23 -58 23 -143 0 -89 -3 -106 -27 -150 -30 -58 -97 -123 -160
-157 -36 -19 -58 -22 -138 -22 -83 0 -101 3 -145 26 -133 69 -210 216 -185
349 44 229 261 347 468 254z"/>
<path d="M2882 2808 c-68 -33 -80 -139 -22 -190 67 -60 184 -19 191 67 4 50
-3 70 -37 101 -38 36 -85 44 -132 22z"/>
<path d="M3482 2808 c-39 -19 -65 -73 -59 -121 13 -94 119 -130 192 -66 31 28
35 36 35 81 0 45 -4 54 -36 84 -38 36 -85 44 -132 22z"/>
<path d="M4072 2800 c-40 -24 -55 -62 -48 -115 12 -91 119 -127 191 -64 31 28
35 36 35 81 0 45 -4 54 -36 84 -42 40 -91 45 -142 14z"/>
<path d="M2883 1206 c-42 -19 -67 -68 -60 -119 10 -75 84 -121 152 -93 54 23
74 53 75 108 0 89 -84 141 -167 104z"/>
<path d="M3483 1206 c-42 -19 -67 -68 -60 -119 10 -75 84 -121 152 -93 54 23
74 53 75 108 0 89 -84 141 -167 104z"/>
<path d="M4083 1206 c-42 -19 -67 -68 -60 -119 10 -75 84 -121 152 -93 54 23
74 53 75 108 0 89 -84 141 -167 104z"/>
</g>
</svg>
